<svg xmlns="http://www.w3.org/2000/svg" width="640" height="454" viewBox="0 0 640 454" role="img" aria-label="A classified project: some work can't be named in public. Ask for the file.">
  <defs>
    <linearGradient id="card" x1="0" y1="0" x2="0.6" y2="1">
      <stop offset="0" stop-color="#ffffff"/><stop offset="1" stop-color="#f3f4fa"/>
    </linearGradient>
    <pattern id="dots" width="12" height="12" patternUnits="userSpaceOnUse">
      <circle cx="1" cy="1" r="1" fill="#cfd3f6"/>
    </pattern>
    <filter id="lift" x="-20%" y="-20%" width="140%" height="150%">
      <feDropShadow dx="0" dy="14" stdDeviation="18" flood-color="#000" flood-opacity="0.22"/>
    </filter>
  </defs>
  <rect x="1" y="1" width="638" height="452" rx="22" fill="url(#card)" stroke="rgba(0,0,0,0.09)" stroke-width="1.5"/>
  <rect x="1" y="1" width="638" height="452" rx="22" fill="url(#dots)" opacity="0.18"/>
  <rect x="40" y="40" width="68" height="68" rx="18" fill="#d70015" fill-opacity="0.12" stroke="#d70015" stroke-opacity="0.5"/><rect x="58" y="64" width="32" height="20" rx="3" fill="#1c1c1e" stroke="rgba(0,0,0,0.09)"/><rect x="128" y="48" width="190" height="28" rx="3" fill="#1c1c1e" stroke="rgba(0,0,0,0.09)"/><rect x="129" y="88" width="250" height="14" rx="3" fill="#1c1c1e" stroke="rgba(0,0,0,0.09)"/><g transform="translate(540 64) rotate(-8)"><rect x="-68" y="-18" width="136" height="36" rx="6" fill="none" stroke="#d70015" stroke-width="2.6"/><text x="0" y="6" text-anchor="middle" font-family="ui-monospace,'SF Mono',Menlo,Consolas,monospace" font-size="15" font-weight="800" letter-spacing="3" fill="#d70015">CLASSIFIED</text></g><rect x="40" y="144" width="540" height="20" rx="3" fill="#1c1c1e" stroke="rgba(0,0,0,0.09)"/><rect x="40" y="174" width="360" height="20" rx="3" fill="#1c1c1e" stroke="rgba(0,0,0,0.09)"/><path d="M40 222H600" stroke="rgba(0,0,0,0.09)"/><text x="40" y="256" font-family="ui-monospace,'SF Mono',Menlo,Consolas,monospace" font-size="16" letter-spacing="2.2" fill="#d70015">LATEST</text><rect x="40" y="274" width="520" height="18" rx="3" fill="#1c1c1e" stroke="rgba(0,0,0,0.09)"/><rect x="40" y="302" width="430" height="18" rx="3" fill="#1c1c1e" stroke="rgba(0,0,0,0.09)"/><text x="40" y="406" font-family="-apple-system,BlinkMacSystemFont,'SF Pro Display','Segoe UI',Helvetica,Arial,sans-serif" font-size="20" fill="rgba(60,60,67,0.62)">Some work can't be named in public. Ask for the file.</text>
</svg>
