<svg xmlns="http://www.w3.org/2000/svg" width="640" height="448" viewBox="0 0 640 448" role="img" aria-label="Stories worth asking about: what broke and what fixed it in enma, Gravedigger, Hettie and one more. Classified; ask.">
  <defs>
    <linearGradient id="card" x1="0" y1="0" x2="0.6" y2="1">
      <stop offset="0" stop-color="#10131d"/><stop offset="1" stop-color="#05060a"/>
    </linearGradient>
    <pattern id="dots" width="12" height="12" patternUnits="userSpaceOnUse">
      <circle cx="1" cy="1" r="1" fill="#121865"/>
    </pattern>
    <filter id="lift" x="-20%" y="-20%" width="140%" height="150%">
      <feDropShadow dx="0" dy="14" stdDeviation="18" flood-color="#000" flood-opacity="0.7"/>
    </filter>
  </defs>
  <rect x="1" y="1" width="638" height="446" rx="22" fill="url(#card)" stroke="rgba(255,255,255,0.10)" stroke-width="1.5"/>
  <rect x="1" y="1" width="638" height="446" rx="22" fill="url(#dots)" opacity="0.18"/>
  <text x="40" y="56" font-family="ui-monospace,'SF Mono',Menlo,Consolas,monospace" font-size="17" letter-spacing="2.4" fill="rgba(235,235,245,0.52)">STORIES WORTH ASKING ABOUT</text>
  <g transform="translate(530 60) rotate(-9)">
    <rect x="-74" y="-19" width="148" height="38" rx="6" fill="none" stroke="#ff453a" stroke-width="2.6"/>
    <text x="0" y="6" text-anchor="middle" font-family="ui-monospace,'SF Mono',Menlo,Consolas,monospace" font-size="16" font-weight="800" letter-spacing="3.5" fill="#ff453a">CLASSIFIED</text>
  </g>
  <path d="M40 96H600" stroke="rgba(255,255,255,0.10)"/>
  <g font-family="ui-monospace,'SF Mono',Menlo,Consolas,monospace" font-size="14" letter-spacing="1.4" fill="rgba(235,235,245,0.52)">
    <text x="40" y="130">PROJECT</text><text x="206" y="130">WHAT BROKE</text><text x="430" y="130">WHAT FIXED IT</text>
  </g>
  <text x="40" y="178" font-family="ui-monospace,'SF Mono',Menlo,Consolas,monospace" font-size="19" letter-spacing="0.6" fill="#ffffff">ENMA</text><rect x="206" y="161" width="196" height="20" rx="3" fill="#000000" stroke="rgba(255,255,255,0.10)"/><rect x="430" y="161" width="150" height="20" rx="3" fill="#000000" stroke="rgba(255,255,255,0.10)"/>
  <text x="40" y="236" font-family="ui-monospace,'SF Mono',Menlo,Consolas,monospace" font-size="19" letter-spacing="0.6" fill="#ffffff">GRAVEDIGGER</text><rect x="206" y="219" width="172" height="20" rx="3" fill="#000000" stroke="rgba(255,255,255,0.10)"/><rect x="430" y="219" width="164" height="20" rx="3" fill="#000000" stroke="rgba(255,255,255,0.10)"/>
  <text x="40" y="294" font-family="ui-monospace,'SF Mono',Menlo,Consolas,monospace" font-size="19" letter-spacing="0.6" fill="#ffffff">HETTIE</text><rect x="206" y="277" width="188" height="20" rx="3" fill="#000000" stroke="rgba(255,255,255,0.10)"/><rect x="430" y="277" width="132" height="20" rx="3" fill="#000000" stroke="rgba(255,255,255,0.10)"/>
  <rect x="40" y="335" width="110" height="20" rx="3" fill="#000000" stroke="rgba(255,255,255,0.10)"/><rect x="206" y="335" width="164" height="20" rx="3" fill="#000000" stroke="rgba(255,255,255,0.10)"/><rect x="430" y="335" width="156" height="20" rx="3" fill="#000000" stroke="rgba(255,255,255,0.10)"/>
  <text x="40" y="416" font-family="-apple-system,BlinkMacSystemFont,'SF Pro Display','Segoe UI',Helvetica,Arial,sans-serif" font-size="19" fill="rgba(235,235,245,0.52)">The war stories are real. Ask for the file.</text>
</svg>
